<svg id="logo" xmlns="http://www.w3.org/2000/svg" width="36.969" height="47.031" viewBox="0 0 36.969 47.031">
  <defs>
    <style>
      .cls-1 {
        fill: #fff;
        fill-rule: evenodd;
      }
    </style>
  </defs>
  <path class="cls-1" d="M101.984,74.37a1.38,1.38,0,0,1-.028.248l-5.7,21.351a1.443,1.443,0,0,1-.8.935l-2.637,1.208,1.893,3.084h3.667a1.456,1.456,0,0,1,1.482,1.43v2.943a1.483,1.483,0,0,1-2.963,0v-1.512h-3.03a1.493,1.493,0,0,1-1.275-.7l-2.463-4.011-4.364,2c-0.022.01-.046,0.006-0.068,0.015a1.538,1.538,0,0,1-.559.122H85.129l-0.013,0a1.541,1.541,0,0,1-.369-0.046l-7.155-1.839-6.123,6.544a1.5,1.5,0,0,1-1.073.472H70.369a1.508,1.508,0,0,1-1.064-.435l-1.747-1.739a1.4,1.4,0,0,1,.032-2.023,1.519,1.519,0,0,1,2.095.031l0.645,0.643,4.042-4.32L72.56,98.3a1.459,1.459,0,0,1-1.039-.975l-6.454-20.95c-0.013-.039-0.023-0.079-0.032-0.119s0-.085-0.008-0.128a1.331,1.331,0,0,1-.011-0.178,1.351,1.351,0,0,1,.054-0.373c0.009-.033,0-0.066.014-0.1l4.187-11.526a1.458,1.458,0,0,1,.919-0.88l9.092-3a1.529,1.529,0,0,1,1.208.109,1.435,1.435,0,0,1,.719.944l1.726,7.742,3.693,0.936,0.781-2.693a1.453,1.453,0,0,1,.928-0.961l8.3-2.869a1.529,1.529,0,0,1,1.144.059,1.448,1.448,0,0,1,.759.829l3.382,9.632a1.377,1.377,0,0,1,.072.449C102,74.292,101.987,74.33,101.984,74.37ZM74.125,95.743L84,98V81L69,78ZM78.664,63.3L71.83,65.555l-2.865,7.887,11-4.288Zm3.114,8.232L71.325,75.608l12.761,2.969,1.744-6.015ZM87,81V98l6.556-3.394L98,77Zm9.221-14.534L90.057,68.6l-2.689,9.273,11.3-4.426Z" transform="translate(-65.031 -59.969)"/>
</svg>
